<?xml version="1.0" encoding="UTF-8"?>
<svg width="364px" height="19px" viewBox="0 0 364 19" version="1.1" xmlns="http://www.w3.org/2000/svg" xmlns:xlink="http://www.w3.org/1999/xlink">
    <!-- Generator: Sketch 55.2 (78181) - https://sketchapp.com -->
    <title>Logo</title>
    <desc>Created with Sketch.</desc>
    <g id="Desktop" stroke="none" stroke-width="1" fill="none" fill-rule="evenodd">
        <g id="0.0_Homepage" transform="translate(-25.000000, -33.000000)" fill="#092C54">
            <g id="NAV/Expertise">
                <g id="Logo" transform="translate(25.000000, 33.000000)">
                    <path d="M359.07261,11.3010477 C362.629266,11.2331423 363.415911,9.38558598 363.304793,7.91459605 C363.194557,6.47182655 361.889362,5.0563956 359.67053,5.0563956 L352.509596,5.0563956 L352.509596,15.6575766 L354.647294,15.6575766 L354.647294,11.3019296 L359.07261,11.3010477 Z M361.14152,8.1932728 C361.14152,8.94199609 360.697049,9.35824744 359.67053,9.35824744 L354.647294,9.35824744 L354.647294,7.0556367 L359.391854,7.0556367 C360.585931,7.0556367 361.14152,7.47100616 361.14152,8.1932728 Z" id="Fill-1"></path>
                    <polyline id="Fill-3" points="341.413676 13.6874378 349.157538 13.6874378 349.157538 15.685797 339.27686 15.685797 339.27686 4.75126219 341.413676 4.75126219"></polyline>
                    <polyline id="Fill-5" points="326.856079 13.6874378 334.598177 13.6874378 334.598177 15.685797 324.719263 15.685797 324.719263 4.75126219 326.856079 4.75126219"></polyline>
                    <path d="M299.222545,15.6588113 L296.282329,11.3014004 C297.752437,10.9124876 299.084089,9.38682062 298.973853,7.91583069 C298.862735,6.47217931 297.558422,5.05763024 295.337827,5.05763024 L288.178656,5.05763024 L288.178656,15.6588113 L290.31459,15.6588113 L290.31459,11.384298 L293.645483,11.384298 L296.585699,15.6588113 L299.222545,15.6588113 Z M296.808816,8.19274367 C296.808816,8.94234885 296.364345,9.35860019 295.337827,9.35860019 L290.31459,9.35860019 L290.31459,7.05510757 L295.060914,7.05510757 C296.253227,7.05510757 296.808816,7.47224081 296.808816,8.19274367 L296.808816,8.19274367 Z" id="Fill-7"></path>
                    <polygon id="Fill-9" points="302.269999 15.6863262 302.269999 4.75179133 311.706205 4.75179133 311.706205 6.77748909 304.405933 6.77748909 304.405933 8.88696625 308.625769 8.88696625 308.625769 10.8853255 304.405933 10.8853255 304.405933 13.687967 312.149795 13.687967 312.149795 15.6863262"></polygon>
                    <path d="M284.977136,10.3019563 C284.977136,6.99928403 282.286495,4.55733492 278.317115,4.55733492 C274.375955,4.55733492 271.573314,7.02750446 271.573314,10.3019563 C271.573314,13.5499514 274.375955,16.074798 278.317115,16.074798 C282.286495,16.074798 284.977136,13.5499514 284.977136,10.3019563 M282.675408,10.3019563 C282.675408,12.3558745 281.119756,14.0491003 278.317115,14.0491003 C275.570032,14.0491003 273.877688,12.383213 273.877688,10.3019563 C273.877688,8.22069953 275.570032,6.55569414 278.317115,6.55569414 C281.092418,6.55569414 282.675408,8.24891996 282.675408,10.3019563" id="Fill-11"></path>
                    <path d="M269.603969,10.3019563 C269.603969,6.99928403 266.911563,4.55733492 262.943065,4.55733492 C259.002788,4.55733492 256.199264,7.02750446 256.199264,10.3019563 C256.199264,13.5499514 259.002788,16.074798 262.943065,16.074798 C266.911563,16.074798 269.603969,13.5499514 269.603969,10.3019563 M267.300476,10.3019563 C267.300476,12.3558745 265.746589,14.0491003 262.943065,14.0491003 C260.196865,14.0491003 258.502757,12.383213 258.502757,10.3019563 C258.502757,8.22069953 260.196865,6.55569414 262.943065,6.55569414 C265.71925,6.55569414 267.300476,8.24891996 267.300476,10.3019563" id="Fill-13"></path>
                    <polygon id="Fill-15" points="250.618851 15.6312081 250.618851 4.30776049 244.956245 13.9653209 239.573198 4.58555535 239.573198 15.6312081 237.185044 15.6312081 237.185044 0.117026597 239.323624 0.117026597 244.956245 9.99682286 250.895764 0.117026597 253.143697 0.117026597 253.143697 15.6312081"></polygon>
                    <polygon id="Fill-17" points="184.323063 15.6863262 184.323063 4.75179133 193.758388 4.75179133 193.758388 6.77748909 186.460761 6.77748909 186.460761 8.88696625 190.677951 8.88696625 190.677951 10.8853255 186.460761 10.8853255 186.460761 13.687967 194.202859 13.687967 194.202859 15.6863262"></polygon>
                    <path d="M218.95738,15.769841 L222.037816,15.769841 L219.818985,13.271451 C220.457472,12.4398302 221.039519,11.745784 221.678006,9.94232215 L219.929221,8.94226066 C219.457411,10.1354557 218.818923,11.2184147 218.403554,11.6346661 L210.524763,2.80872651 L217.820626,2.80872651 L217.820626,0.616351835 L207.000736,0.616351835 L207.055414,2.56003397 L211.108573,6.94390144 L210.246968,7.27725527 C207.499885,8.24909634 206.612706,9.96877881 206.612706,11.6064457 C206.612706,14.9373383 209.608481,16.102313 212.495783,16.102313 C213.965891,16.102313 215.742015,16.1860924 218.069318,14.7697795 L218.95738,15.769841 Z M212.718019,8.80380417 C212.745358,8.83114271 212.772696,8.85936314 212.800917,8.88670168 L216.657415,13.161215 C215.463338,14.0766152 213.965891,14.1603946 212.66246,14.1603946 C210.664101,14.1603946 208.999096,13.1329946 209.054655,11.4953277 C209.081993,10.8012815 209.776039,10.1081172 210.552983,9.63630686 C210.885455,9.41407098 212.273547,8.88670168 212.718019,8.80380417 L212.718019,8.80380417 Z" id="Fill-19"></path>
                    <polygon id="Fill-21" points="178.764344 15.6588113 171.853866 8.77567193 171.853866 15.6588113 169.827286 15.6588113 169.827286 4.75161495 171.436733 4.75161495 178.070298 11.9398877 178.070298 4.75161495 180.068657 4.75161495 180.068657 15.6588113"></polygon>
                    <polygon id="Fill-23" points="163.765803 15.6863262 165.902618 15.6863262 165.902618 4.7235709 163.765803 4.7235709"></polygon>
                    <path d="M161.762505,15.6588113 L156.15634,5.02940981 L154.269099,5.02940981 L148.44158,15.6588113 L150.716852,15.6588113 L152.076724,13.2997597 L158.376935,13.2997597 L159.459012,15.6588113 L161.762505,15.6588113 Z M157.128181,11.1347235 L153.297258,11.1347235 L155.240058,7.66625626 L157.128181,11.1347235 Z" id="Fill-25"></path>
                    <polygon id="Fill-26" points="144.611362 15.6588113 143.001915 15.6588113 140.282172 8.16540512 137.562428 15.6588113 135.98032 15.6588113 132.094719 4.75161495 134.342653 4.75161495 136.812822 11.8287697 139.39411 4.75161495 141.170233 4.75161495 143.750639 11.8287697 146.249029 4.75161495 148.469624 4.75161495"></polygon>
                    <path d="M123.989018,16.102313 C120.853023,16.2689899 117.63413,15.1313538 115.580212,12.6329638 L116.801627,11.1901943 C119.02134,13.2996715 121.657305,13.9928358 123.712105,13.9381587 C126.514746,13.8543793 128.596003,12.5218459 128.624224,10.9688403 C128.651562,9.33117346 126.653203,8.55334785 124.322372,8.36021428 C122.379572,8.21999402 120.630787,8.99781963 118.827325,8.16531694 C117.356335,7.47215262 116.773407,6.38831172 116.828966,4.27971644 C116.856304,2.25401868 118.54953,0.117202975 122.906941,0.00608503028 C126.265172,-0.0776943721 127.930177,0.699249349 129.623403,2.25401868 L128.374649,3.97458304 C126.265172,2.11556219 124.710403,2.17112117 122.656484,2.17112117 C120.298315,2.17112117 118.716207,3.41899332 118.770884,4.58484984 C118.854663,6.97123998 121.214597,6.49942966 121.852202,6.49942966 C123.045397,6.52853198 124.238592,6.33363463 125.682244,6.58320906 C128.845578,7.11057835 130.483244,8.55334785 130.483244,11.0235174 C130.483244,13.8270408 127.84728,15.9082975 123.989018,16.102313" id="Fill-27"></path>
                    <path d="M100.173356,15.9085621 L99.7853249,15.9085621 C99.2297352,15.9085621 98.4810119,15.3803109 98.4810119,14.6324695 C98.4810119,13.7990849 99.2852942,13.2161566 99.9793404,13.2161566 C100.700725,13.2161566 101.617007,13.8819824 101.588787,15.1316183 C101.588787,15.8530031 101.255433,17.3231111 99.1741762,18.8778805 L98.9246018,18.3787316 C99.674207,17.7402444 100.034017,17.2128751 100.173356,15.9085621" id="Fill-28"></path>
                    <polygon id="Fill-29" points="91.2333881 15.6588113 91.2333881 11.107385 85.099854 11.107385 85.099854 15.6588113 83.1852742 15.6588113 83.1852742 4.75161495 85.099854 4.75161495 85.099854 9.08080533 91.2333881 9.08080533 91.2333881 4.75161495 93.1479679 4.75161495 93.1479679 15.6588113"></polygon>
                    <polygon id="Fill-30" points="77.4625236 6.97168092 77.4625236 15.659164 75.270149 15.659164 75.270149 6.97168092 71.3007691 6.97168092 71.3007691 5.02976256 81.1258883 5.02976256 81.1258883 6.97168092"></polygon>
                    <path d="M44.7521347,15.6588113 L39.1459699,5.02940981 L37.2587286,5.02940981 L31.4312097,15.6588113 L33.7064819,15.6588113 L35.0663539,13.2997597 L41.366565,13.2997597 L42.4486421,15.6588113 L44.7521347,15.6588113 Z M40.1178109,11.1347235 L36.2877694,11.1347235 L38.2305697,7.66625626 L40.1178109,11.1347235 Z" id="Fill-31"></path>
                    <polygon id="Fill-32" points="52.1370686 15.6588113 50.4165042 15.6588113 44.6718829 5.02940981 46.9471551 5.02940981 51.2763454 12.8006108 55.5226383 5.02940981 57.8825718 5.02940981"></polygon>
                    <path d="M71.2307471,15.6588113 L65.6245823,5.02940981 L63.737341,5.02940981 L57.9098221,15.6588113 L60.1850943,15.6588113 L61.5449663,13.2997597 L67.8451774,13.2997597 L68.9272545,15.6588113 L71.2307471,15.6588113 Z M66.5955415,11.1347235 L62.7663818,11.1347235 L64.7083002,7.66625626 L66.5955415,11.1347235 Z" id="Fill-33"></path>
                    <path d="M8.29804115,16.3804606 C4.13464579,16.3804606 0.000352755382,12.9940089 0.000352755382,8.27678764 C0.000352755382,3.55868445 3.19102515,0.144894272 8.29804115,0.144894272 C11.4622569,0.144894272 13.959765,0.921837993 15.9299038,3.14155121 L14.2648984,4.890336 C13.0990418,2.89197678 10.5741952,2.17147392 8.29804115,2.17147392 C4.80135346,2.17147392 2.164507,4.86211557 2.164507,8.27678764 C2.164507,11.6905778 4.80135346,14.0769679 8.29804115,14.0769679 C10.7408721,14.0769679 12.9879239,13.7991731 14.4033549,11.357224 L16.2905961,12.7999935 C13.7375291,15.6308554 11.7391699,16.3804606 8.29804115,16.3804606" id="Fill-34"></path>
                    <path d="M30.3736491,15.6588113 L27.4325511,11.3014004 C28.9026592,10.9124876 30.2351926,9.38682062 30.1240747,7.91583069 C30.0129567,6.47217931 28.7086437,5.05763024 26.4880486,5.05763024 L19.3279963,5.05763024 L19.3279963,15.6588113 L21.464812,15.6588113 L21.464812,11.384298 L24.7948228,11.384298 L27.7376845,15.6588113 L30.3736491,15.6588113 Z M27.9590385,8.19274367 C27.9590385,8.94234885 27.5154487,9.35860019 26.4880486,9.35860019 L21.464812,9.35860019 L21.464812,7.05510757 L26.2111356,7.05510757 C27.4043307,7.05510757 27.9590385,7.47224081 27.9590385,8.19274367 L27.9590385,8.19274367 Z" id="Fill-35"></path>
                </g>
            </g>
        </g>
    </g>
</svg>