<svg xmlns="http://www.w3.org/2000/svg" width="16" height="16" fill="none" viewBox="0 0 16 16"><g clip-path="url(#logo-slack__a)"><path fill="white" fill-rule="evenodd" d="M12.16 5.83a1.66 1.66 0 1 1 1.66 1.67h-1.66zm-.83 0a1.66 1.66 0 1 1-3.33 0V1.66a1.66 1.66 0 1 1 3.33 0zm-7.07-4.1c0 .93.74 1.67 1.66 1.67h1.66V1.74a1.66 1.66 0 1 0-3.32 0m3.32 4.18c0-.92-.74-1.66-1.66-1.66H1.75a1.66 1.66 0 1 0 0 3.32h4.17c.92 0 1.66-.74 1.66-1.66m-5.82 5.83c.92 0 1.67-.74 1.67-1.66V8.42H1.76a1.66 1.66 0 1 0 0 3.32m4.16-3.32c-.92 0-1.66.74-1.66 1.66v4.16a1.66 1.66 0 1 0 3.32 0v-4.16c0-.92-.74-1.66-1.66-1.66m5.83 5.82c0-.92-.74-1.67-1.66-1.67H8.43v1.67a1.66 1.66 0 1 0 3.32 0m-3.32-4.16c0 .92.74 1.66 1.66 1.66h4.17a1.66 1.66 0 1 0 0-3.32H10.1c-.92 0-1.66.74-1.66 1.66" clip-rule="evenodd"/></g><defs><clipPath id="logo-slack__a"><rect width="16" height="16" fill="white"/></clipPath></defs></svg>