<svg width="328" height="92" viewBox="0 0 328 92" fill="none" xmlns="http://www.w3.org/2000/svg">
<path d="M1 13C1 6.37258 6.37258 1 13 1H315C321.627 1 327 6.37258 327 13V78.1282C327 84.7556 321.627 90.1282 315 90.1282H13C6.37258 90.1282 1 84.7556 1 78.1282V13Z" fill="#0A0A0A" style="fill:#0A0A0A;fill:color(display-p3 0.0392 0.0392 0.0392);fill-opacity:1;"/>
<path d="M315 0.5C321.904 0.5 327.5 6.09644 327.5 13V78.1279C327.5 85.0315 321.904 90.6279 315 90.6279H13C6.09644 90.6279 0.5 85.0315 0.5 78.1279V13C0.500001 6.09644 6.09644 0.5 13 0.5H315Z" stroke="white" stroke-opacity="0.066" style="stroke:white;stroke-opacity:0.066;"/>
<g clip-path="url(#clip0_9954_19671)">
<path d="M32.9385 39.2054H34.7334V37.4105H36.0791V39.2054H38.3232L38.415 39.2103C38.8674 39.2565 39.2207 39.6384 39.2207 40.1029V42.3461H41.0146V43.6918H39.2207V45.4877H41.0146V46.8334H39.2207V49.0775L39.2158 49.1693C39.1727 49.5913 38.8371 49.9271 38.415 49.9701L38.3232 49.975H36.0791V51.7689H34.7334V49.975H32.9385V51.7689H31.5928V49.975H29.3486L29.2568 49.9701C28.8347 49.9272 28.4992 49.5914 28.4561 49.1693L28.4512 49.0775V46.8334H26.6562V45.4877H28.4512V43.6918H26.6562V42.3461H28.4512V40.1029C28.4512 39.6383 28.8043 39.2563 29.2568 39.2103L29.3486 39.2054H31.5928V37.4105H32.9385V39.2054ZM33.1064 44.1801C32.8177 44.3831 32.5646 44.6209 32.3164 44.8783C31.9841 45.2229 31.5886 45.6873 31.165 46.0199C30.7881 46.3157 30.3464 46.5456 29.7969 46.6234V48.6283H37.874V46.6547H35.4502C34.7225 46.6547 34.12 46.394 33.7012 45.9545C33.2908 45.5236 33.0948 44.9596 33.0947 44.4105C33.0947 44.334 33.0988 44.2568 33.1064 44.1801ZM29.7969 45.2513C29.9892 45.1948 30.1607 45.0973 30.334 44.9613C30.6602 44.7052 30.9232 44.384 31.3477 43.9437C31.7455 43.5311 32.2336 43.077 32.9014 42.7328C33.5758 42.3852 34.3983 42.1674 35.4502 42.1674V43.5131C35.0564 43.5131 34.8178 43.6462 34.6758 43.7953C34.5255 43.9532 34.4405 44.1746 34.4404 44.4105C34.4405 44.6465 34.5254 44.8688 34.6758 45.0267C34.8179 45.1756 35.0569 45.308 35.4502 45.308H37.874V40.5511H29.7969V45.2513Z" fill="#A0A0A0" style="fill:#A0A0A0;fill:color(display-p3 0.6275 0.6275 0.6275);fill-opacity:1;"/>
</g>
<path d="M49.6583 42.4847C49.6583 41.4287 50.1863 40.7797 51.3633 40.7797H52.3423V41.7257H51.4403C51.0663 41.7257 50.8023 42.0117 50.8023 42.4847V42.8257H52.2653V43.7717H50.8023V48.5897H49.6583V43.7717H48.8553V42.8257H49.6583V42.4847ZM53.5083 47.3137V40.7797H54.6523V47.2587C54.6523 47.5227 54.7733 47.6437 55.0263 47.6437H55.5103V48.5897H54.7843C54.0143 48.5897 53.5083 48.0947 53.5083 47.3137ZM61.6277 48.5897H60.5497L60.5387 47.6327C60.2307 48.3917 59.5707 48.7217 58.8117 48.7217C57.5247 48.7217 56.8647 47.7757 56.8647 46.5107V42.7597H58.0087V46.1587C58.0087 47.1927 58.3167 47.7537 59.1087 47.7537C59.9337 47.7537 60.4837 47.1927 60.4837 46.1587V42.7597H61.6277V48.5897ZM63.3839 42.7597H64.5279V48.5897H63.3839V42.7597ZM63.3729 41.8907V40.7797H64.5609V41.8907H63.3729ZM71.2783 40.7797V48.5897H70.2113L70.1783 47.7757C69.8593 48.3697 69.2433 48.7217 68.3633 48.7217C66.6913 48.7217 65.8993 47.3027 65.8993 45.6747C65.8993 44.0467 66.6913 42.6277 68.3633 42.6277C69.1993 42.6277 69.7933 42.9357 70.1343 43.5187V40.7797H71.2783ZM67.0873 45.6747C67.0873 46.7197 67.5383 47.7207 68.6493 47.7207C69.7713 47.7207 70.2223 46.7197 70.2223 45.6747C70.2223 44.5967 69.7713 43.5957 68.6493 43.5957C67.5273 43.5957 67.0873 44.5857 67.0873 45.6747ZM72.6561 44.8717H76.3411V45.8837H72.6561V44.8717ZM77.736 42.0557C78.616 42.0557 79.001 41.6707 79.001 40.7797H79.914V48.5897H78.759V42.9907H77.12V42.0557H77.736Z" fill="#A0A0A0" style="fill:#A0A0A0;fill:color(display-p3 0.6275 0.6275 0.6275);fill-opacity:1;"/>
<path d="M301.352 36.5897H287.636C286.645 36.5897 285.841 37.3933 285.841 38.3846V48.7948C285.841 49.7861 285.038 50.5897 284.046 50.5897H148.657C147.666 50.5897 146.862 49.7861 146.862 48.7948V38.3846C146.862 37.3933 146.058 36.5897 145.067 36.5897H131.352" stroke="url(#paint0_linear_9954_19671)" style="" stroke-width="2"/>
<path d="M284.352 36.5897H270.636C269.645 36.5897 268.841 37.3933 268.841 38.3846V45.7948C268.841 46.7861 268.038 47.5897 267.046 47.5897H131.657C130.666 47.5897 129.862 46.7861 129.862 45.7948V38.3846C129.862 37.3933 129.058 36.5897 128.067 36.5897H114.352" stroke="url(#paint1_linear_9954_19671)" style="" stroke-width="2"/>
<path d="M267.352 36.5897H253.636C252.645 36.5897 251.841 37.3933 251.841 38.3846V42.7948C251.841 43.7861 251.038 44.5897 250.046 44.5897H114.657C113.666 44.5897 112.862 43.7861 112.862 42.7948V38.3846C112.862 37.3933 112.058 36.5897 111.067 36.5897H97.3516" stroke="url(#paint2_linear_9954_19671)" style="" stroke-width="2"/>
<defs>
<linearGradient id="paint0_linear_9954_19671" x1="128.852" y1="38.5899" x2="303.852" y2="38.5899" gradientUnits="userSpaceOnUse">
<stop stop-color="#E5484D" style="stop-color:#E5484D;stop-color:color(display-p3 0.8980 0.2824 0.3020);stop-opacity:1;"/>
<stop offset="0.10172" stop-color="#E5484D" stop-opacity="0.8" style="stop-color:#E5484D;stop-color:color(display-p3 0.8980 0.2824 0.3020);stop-opacity:0.8;"/>
<stop offset="0.10939" stop-color="#E5484D" stop-opacity="0.5" style="stop-color:#E5484D;stop-color:color(display-p3 0.8980 0.2824 0.3020);stop-opacity:0.5;"/>
<stop offset="0.890737" stop-color="#E5484D" stop-opacity="0.5" style="stop-color:#E5484D;stop-color:color(display-p3 0.8980 0.2824 0.3020);stop-opacity:0.5;"/>
<stop offset="0.89939" stop-color="#E5484D" stop-opacity="0.8" style="stop-color:#E5484D;stop-color:color(display-p3 0.8980 0.2824 0.3020);stop-opacity:0.8;"/>
<stop offset="1" stop-color="#E5484D" style="stop-color:#E5484D;stop-color:color(display-p3 0.8980 0.2824 0.3020);stop-opacity:1;"/>
</linearGradient>
<linearGradient id="paint1_linear_9954_19671" x1="114.852" y1="37.3207" x2="282.852" y2="37.3207" gradientUnits="userSpaceOnUse">
<stop stop-color="#FFB224" style="stop-color:#FFB224;stop-color:color(display-p3 1.0000 0.6980 0.1412);stop-opacity:1;"/>
<stop offset="0.0808565" stop-color="#FFB224" stop-opacity="0.8" style="stop-color:#FFB224;stop-color:color(display-p3 1.0000 0.6980 0.1412);stop-opacity:0.8;"/>
<stop offset="0.10939" stop-color="#FFB224" stop-opacity="0.5" style="stop-color:#FFB224;stop-color:color(display-p3 1.0000 0.6980 0.1412);stop-opacity:0.5;"/>
<stop offset="0.903622" stop-color="#FFB224" stop-opacity="0.5" style="stop-color:#FFB224;stop-color:color(display-p3 1.0000 0.6980 0.1412);stop-opacity:0.5;"/>
<stop offset="0.943015" stop-color="#FFB224" stop-opacity="0.8" style="stop-color:#FFB224;stop-color:color(display-p3 1.0000 0.6980 0.1412);stop-opacity:0.8;"/>
<stop offset="1" stop-color="#FFB224" style="stop-color:#FFB224;stop-color:color(display-p3 1.0000 0.6980 0.1412);stop-opacity:1;"/>
</linearGradient>
<linearGradient id="paint2_linear_9954_19671" x1="93.1953" y1="38.3973" x2="263.695" y2="38.3791" gradientUnits="userSpaceOnUse">
<stop stop-color="#0070F3" style="stop-color:#0070F3;stop-color:color(display-p3 0.0000 0.4392 0.9529);stop-opacity:1;"/>
<stop offset="0.10172" stop-color="#0070F3" stop-opacity="0.8" style="stop-color:#0070F3;stop-color:color(display-p3 0.0000 0.4392 0.9529);stop-opacity:0.8;"/>
<stop offset="0.15" stop-color="#0070F3" stop-opacity="0.5" style="stop-color:#0070F3;stop-color:color(display-p3 0.0000 0.4392 0.9529);stop-opacity:0.5;"/>
<stop offset="0.916131" stop-color="#0070F3" stop-opacity="0.5" style="stop-color:#0070F3;stop-color:color(display-p3 0.0000 0.4392 0.9529);stop-opacity:0.5;"/>
<stop offset="0.931205" stop-color="#0070F3" stop-opacity="0.8" style="stop-color:#0070F3;stop-color:color(display-p3 0.0000 0.4392 0.9529);stop-opacity:0.8;"/>
<stop offset="1" stop-color="#0070F3" style="stop-color:#0070F3;stop-color:color(display-p3 0.0000 0.4392 0.9529);stop-opacity:1;"/>
</linearGradient>
<clipPath id="clip0_9954_19671">
<rect width="14.359" height="14.359" fill="white" style="fill:white;fill-opacity:1;" transform="translate(26.6562 37.4103)"/>
</clipPath>
</defs>
</svg>
