<svg width="626" height="112" viewBox="0 0 626 112" fill="none" xmlns="http://www.w3.org/2000/svg">
<path d="M1 13C1 6.37258 6.37258 1 13 1H613C619.627 1 625 6.37258 625 13V99C625 105.627 619.627 111 613 111H13C6.37259 111 1 105.627 1 99V13Z" fill="white" style="fill:white;fill-opacity:1;"/>
<path d="M613 0.5C619.904 0.500005 625.5 6.09644 625.5 13V99C625.5 105.904 619.904 111.5 613 111.5H13C6.09645 111.5 0.5 105.904 0.5 99V13C0.500001 6.09644 6.09644 0.5 13 0.5H613Z" stroke="black" stroke-opacity="0.05" style="stroke:black;stroke-opacity:0.05;"/>
<g clip-path="url(#clip0_9954_18932)">
<path d="M55 50H57V48H58.5V50H61C61.5523 50 62 50.4477 62 51V53.5H64V55H62V57H64V58.5H62V61C62 61.5177 61.6067 61.9438 61.1025 61.9951L61 62H58.5V64H57V62H55V64H53.5V62H51L50.8975 61.9951C50.427 61.9472 50.0528 61.573 50.0049 61.1025L50 61V58.5H48V57H50V55H48V53.5H50V51C50 50.4477 50.4477 50 51 50H53.5V48H55V50ZM55.3887 55.7432C55.0669 55.9695 54.7854 56.2337 54.5088 56.5205C54.1384 56.9047 53.6969 57.4222 53.2246 57.793C52.7596 58.158 52.2071 58.4346 51.5 58.4883V60.5H60.5V58.5H58C57.189 58.5 56.5175 58.2106 56.0508 57.7207C55.5934 57.2405 55.375 56.6119 55.375 56C55.375 55.9145 55.3801 55.8288 55.3887 55.7432ZM51.5 56.9805C51.8006 56.9359 52.0476 56.8105 52.2988 56.6133C52.6624 56.3278 52.9555 55.9702 53.4287 55.4795C53.8721 55.0196 54.4158 54.5135 55.1602 54.1299C55.9116 53.7426 56.8279 53.5 58 53.5V55C57.5611 55 57.295 55.1483 57.1367 55.3145C56.9692 55.4905 56.875 55.737 56.875 56C56.875 56.263 56.9692 56.5095 57.1367 56.6855C57.295 56.8517 57.5611 57 58 57H60.5V51.5H51.5V56.9805Z" fill="#666666" style="fill:#666666;fill:color(display-p3 0.4000 0.4000 0.4000);fill-opacity:1;"/>
</g>
<path d="M73.862 53.23C73.862 51.886 74.534 51.06 76.032 51.06H77.278V52.264H76.13C75.654 52.264 75.318 52.628 75.318 53.23V53.664H77.18V54.868H75.318V61H73.862V54.868H72.84V53.664H73.862V53.23ZM78.762 59.376V51.06H80.218V59.306C80.218 59.642 80.372 59.796 80.694 59.796H81.31V61H80.386C79.406 61 78.762 60.37 78.762 59.376ZM89.0958 61H87.7238L87.7098 59.782C87.3178 60.748 86.4778 61.168 85.5118 61.168C83.8738 61.168 83.0338 59.964 83.0338 58.354V53.58H84.4898V57.906C84.4898 59.222 84.8818 59.936 85.8898 59.936C86.9398 59.936 87.6398 59.222 87.6398 57.906V53.58H89.0958V61ZM91.3309 53.58H92.7869V61H91.3309V53.58ZM91.3169 52.474V51.06H92.8289V52.474H91.3169ZM101.378 51.06V61H100.02L99.9783 59.964C99.5723 60.72 98.7883 61.168 97.6683 61.168C95.5403 61.168 94.5323 59.362 94.5323 57.29C94.5323 55.218 95.5403 53.412 97.6683 53.412C98.7323 53.412 99.4883 53.804 99.9223 54.546V51.06H101.378ZM96.0443 57.29C96.0443 58.62 96.6183 59.894 98.0323 59.894C99.4603 59.894 100.034 58.62 100.034 57.29C100.034 55.918 99.4603 54.644 98.0323 54.644C96.6043 54.644 96.0443 55.904 96.0443 57.29ZM103.132 56.268H107.822V57.556H103.132V56.268ZM109.597 52.684C110.717 52.684 111.207 52.194 111.207 51.06H112.369V61H110.899V53.874H108.813V52.684H109.597Z" fill="#666666" style="fill:#666666;fill:color(display-p3 0.4000 0.4000 0.4000);fill-opacity:1;"/>
<path d="M500 50.147H473.06C471.955 50.147 471.06 51.0424 471.06 52.147V59.147C471.06 60.2515 470.164 61.147 469.06 61.147H170.94C169.836 61.147 168.94 60.2515 168.94 59.147V52.147C168.94 51.0424 168.045 50.147 166.94 50.147H140" stroke="url(#paint0_linear_9954_18932)" style="" stroke-width="2"/>
<path d="M533 50.147H506.06C504.955 50.147 504.06 51.0424 504.06 52.147V62.147C504.06 63.2515 503.164 64.147 502.06 64.147H203.94C202.836 64.147 201.94 63.2515 201.94 62.147V52.147C201.94 51.0424 201.045 50.147 199.94 50.147H173" stroke="url(#paint1_linear_9954_18932)" style="" stroke-width="2"/>
<path d="M568 50.147H541.06C539.955 50.147 539.06 51.0424 539.06 52.147V65.147C539.06 66.2515 538.164 67.147 537.06 67.147H237.94C236.836 67.147 235.94 66.2515 235.94 65.147V52.147C235.94 51.0424 235.045 50.147 233.94 50.147H207" stroke="url(#paint2_linear_9954_18932)" style="" stroke-width="2"/>
<defs>
<linearGradient id="paint0_linear_9954_18932" x1="130" y1="52.147" x2="504.5" y2="51.147" gradientUnits="userSpaceOnUse">
<stop stop-color="#0070F3" style="stop-color:#0070F3;stop-color:color(display-p3 0.0000 0.4392 0.9529);stop-opacity:1;"/>
<stop offset="0.10172" stop-color="#0070F3" stop-opacity="0.8" style="stop-color:#0070F3;stop-color:color(display-p3 0.0000 0.4392 0.9529);stop-opacity:0.8;"/>
<stop offset="0.10939" stop-color="#0070F3" stop-opacity="0.5" style="stop-color:#0070F3;stop-color:color(display-p3 0.0000 0.4392 0.9529);stop-opacity:0.5;"/>
<stop offset="0.890737" stop-color="#0070F3" stop-opacity="0.5" style="stop-color:#0070F3;stop-color:color(display-p3 0.0000 0.4392 0.9529);stop-opacity:0.5;"/>
<stop offset="0.89939" stop-color="#0070F3" stop-opacity="0.8" style="stop-color:#0070F3;stop-color:color(display-p3 0.0000 0.4392 0.9529);stop-opacity:0.8;"/>
<stop offset="1" stop-color="#0070F3" style="stop-color:#0070F3;stop-color:color(display-p3 0.0000 0.4392 0.9529);stop-opacity:1;"/>
</linearGradient>
<linearGradient id="paint1_linear_9954_18932" x1="163" y1="52.147" x2="540" y2="51.647" gradientUnits="userSpaceOnUse">
<stop stop-color="#FFB224" style="stop-color:#FFB224;stop-color:color(display-p3 1.0000 0.6980 0.1412);stop-opacity:1;"/>
<stop offset="0.10172" stop-color="#FFB224" stop-opacity="0.8" style="stop-color:#FFB224;stop-color:color(display-p3 1.0000 0.6980 0.1412);stop-opacity:0.8;"/>
<stop offset="0.10939" stop-color="#FFB224" stop-opacity="0.5" style="stop-color:#FFB224;stop-color:color(display-p3 1.0000 0.6980 0.1412);stop-opacity:0.5;"/>
<stop offset="0.890737" stop-color="#FFB224" stop-opacity="0.5" style="stop-color:#FFB224;stop-color:color(display-p3 1.0000 0.6980 0.1412);stop-opacity:0.5;"/>
<stop offset="0.89939" stop-color="#FFB224" stop-opacity="0.8" style="stop-color:#FFB224;stop-color:color(display-p3 1.0000 0.6980 0.1412);stop-opacity:0.8;"/>
<stop offset="1" stop-color="#FFB224" style="stop-color:#FFB224;stop-color:color(display-p3 1.0000 0.6980 0.1412);stop-opacity:1;"/>
</linearGradient>
<linearGradient id="paint2_linear_9954_18932" x1="197" y1="52.147" x2="577" y2="51.647" gradientUnits="userSpaceOnUse">
<stop stop-color="#E5484D" style="stop-color:#E5484D;stop-color:color(display-p3 0.8980 0.2824 0.3020);stop-opacity:1;"/>
<stop offset="0.10172" stop-color="#E5484D" stop-opacity="0.8" style="stop-color:#E5484D;stop-color:color(display-p3 0.8980 0.2824 0.3020);stop-opacity:0.8;"/>
<stop offset="0.10939" stop-color="#E5484D" stop-opacity="0.5" style="stop-color:#E5484D;stop-color:color(display-p3 0.8980 0.2824 0.3020);stop-opacity:0.5;"/>
<stop offset="0.890737" stop-color="#E5484D" stop-opacity="0.5" style="stop-color:#E5484D;stop-color:color(display-p3 0.8980 0.2824 0.3020);stop-opacity:0.5;"/>
<stop offset="0.89939" stop-color="#E5484D" stop-opacity="0.8" style="stop-color:#E5484D;stop-color:color(display-p3 0.8980 0.2824 0.3020);stop-opacity:0.8;"/>
<stop offset="1" stop-color="#E5484D" style="stop-color:#E5484D;stop-color:color(display-p3 0.8980 0.2824 0.3020);stop-opacity:1;"/>
</linearGradient>
<clipPath id="clip0_9954_18932">
<rect width="16" height="16" fill="white" style="fill:white;fill-opacity:1;" transform="translate(48 48)"/>
</clipPath>
</defs>
</svg>
